<?xml version="1.0" standalone="no"?>
<!DOCTYPE svg PUBLIC "-//W3C//DTD SVG 20010904//EN"
 "http://www.w3.org/TR/2001/REC-SVG-20010904/DTD/svg10.dtd">
<svg version="1.0" xmlns="http://www.w3.org/2000/svg"
 width="495.000000pt" height="285.000000pt" viewBox="0 0 495.000000 285.000000"
 preserveAspectRatio="xMidYMid meet">

<g transform="translate(0.000000,285.000000) scale(0.100000,-0.100000)"
fill="#000000" stroke="none">
<path d="M3263 2743 c9 -2 23 -2 30 0 6 3 -1 5 -18 5 -16 0 -22 -2 -12 -5z"/>
<path d="M3376 2740 c69 -10 127 -44 152 -89 30 -53 44 -128 37 -189 -6 -50
-9 -54 -56 -81 -44 -25 -64 -29 -167 -35 -306 -18 -683 -75 -1007 -151 -55
-13 -101 -23 -102 -21 -4 3 183 147 287 221 52 36 97 69 100 72 20 24 -156
-98 -288 -199 -74 -56 -111 -78 -132 -78 -17 0 -34 -8 -43 -20 -9 -14 -68 -36
-198 -74 -201 -59 -244 -74 -217 -75 9 -1 99 24 200 54 100 30 190 55 198 55
8 0 -12 -25 -45 -55 -74 -67 -65 -73 11 -8 43 37 61 47 84 45 24 -3 32 2 41
22 12 27 70 43 354 100 361 73 860 124 915 93 40 -21 38 -29 -78 -299 -2 -5
10 -8 26 -8 26 0 32 6 60 68 16 37 40 95 52 130 15 41 35 73 57 92 31 28 40
30 121 32 l87 2 -84 5 c-109 8 -121 21 -132 148 -4 48 -14 104 -22 123 -32 74
-125 130 -212 129 l-50 -1 51 -8z"/>
<path d="M3198 2733 c7 -3 16 -2 19 1 4 3 -2 6 -13 5 -11 0 -14 -3 -6 -6z"/>
<path d="M2858 2609 c-21 -11 -38 -22 -38 -24 0 -5 79 32 89 41 12 11 -18 1
-51 -17z"/>
<path d="M2724 2534 c-18 -14 -18 -15 4 -4 12 6 22 13 22 15 0 8 -5 6 -26 -11z"/>
<path d="M2663 2499 c-35 -22 -46 -37 -15 -20 22 13 58 40 52 41 -3 0 -20 -10
-37 -21z"/>
<path d="M3863 2333 c15 -2 37 -2 50 0 12 2 0 4 -28 4 -27 0 -38 -2 -22 -4z"/>
<path d="M3953 2323 c9 -2 25 -2 35 0 9 3 1 5 -18 5 -19 0 -27 -2 -17 -5z"/>
<path d="M4023 2313 c9 -2 23 -2 30 0 6 3 -1 5 -18 5 -16 0 -22 -2 -12 -5z"/>
<path d="M4078 2303 c6 -2 18 -2 25 0 6 3 1 5 -13 5 -14 0 -19 -2 -12 -5z"/>
<path d="M4128 2293 c7 -3 16 -2 19 1 4 3 -2 6 -13 5 -11 0 -14 -3 -6 -6z"/>
<path d="M4168 2283 c7 -3 16 -2 19 1 4 3 -2 6 -13 5 -11 0 -14 -3 -6 -6z"/>
<path d="M4245 2260 c27 -12 43 -12 25 0 -8 5 -22 9 -30 9 -10 0 -8 -3 5 -9z"/>
<path d="M4350 2215 c80 -43 136 -97 162 -152 13 -29 25 -43 38 -43 27 0 25
10 -8 56 -42 58 -94 100 -172 139 -90 45 -104 45 -20 0z"/>
<path d="M677 1772 c1 -119 2 -303 3 -409 l0 -191 70 -4 70 -3 2 355 3 355
333 3 c220 1 340 -1 353 -8 19 -10 19 -21 17 -298 l-3 -287 -27 -3 c-26 -3
-28 -7 -65 -99 -4 -10 16 -13 81 -13 84 0 86 1 120 35 25 24 37 47 41 77 3 24
5 171 3 328 -3 316 -4 320 -71 360 -30 19 -54 20 -482 20 l-450 0 2 -218z"/>
<path d="M1728 1935 l4 -55 499 0 499 0 0 55 0 55 -502 0 -503 0 3 -55z"/>
<path d="M880 1775 c0 -53 1 -55 28 -56 15 -1 147 -2 294 -3 l268 -1 0 58 0
57 -295 0 -295 0 0 -55z"/>
<path d="M1730 1495 l0 -325 143 -2 c78 -1 284 -1 457 1 339 4 339 4 377 59
16 24 18 56 21 310 l3 282 -75 0 -76 0 -2 -267 -3 -268 -352 -3 -353 -2 0 270
0 270 -70 0 -70 0 0 -325z"/>
<path d="M1918 1575 l-3 -245 263 0 c370 0 355 -12 360 293 l4 197 -311 0
-310 0 -3 -245z m227 90 l0 -40 -40 0 c-36 0 -40 2 -43 28 -6 47 4 59 45 55
37 -3 38 -4 38 -43z m240 0 l0 -40 -40 0 c-36 0 -40 2 -43 28 -6 47 4 59 45
55 37 -3 38 -4 38 -43z m-235 -175 l0 -50 -45 0 -45 0 0 50 0 50 45 0 45 0 0
-50z m240 12 c0 -47 -14 -62 -57 -62 -33 0 -33 0 -33 50 l0 50 45 0 45 0 0
-38z"/>
<path d="M880 1485 l0 -175 254 0 c245 0 254 1 281 22 44 35 55 74 55 208 l0
120 -295 0 -295 0 0 -175z m425 0 l0 -60 -132 -3 -133 -3 0 59 c0 32 3 62 7
66 4 3 63 5 132 4 l126 -3 0 -60z"/>
<path d="M605 1512 c-246 -160 -416 -328 -489 -482 -39 -83 -43 -190 -9 -256
73 -138 289 -243 594 -288 167 -25 219 -67 219 -179 0 -78 19 -129 68 -179 53
-56 112 -72 236 -65 116 7 196 29 346 95 195 86 404 213 620 377 l95 72 170
43 c157 39 487 135 545 159 19 7 -7 10 -102 10 -119 1 -137 -2 -265 -38 -227
-64 -220 -67 -96 47 59 55 128 121 153 146 l44 46 -46 0 c-45 0 -50 -3 -150
-98 -56 -53 -137 -127 -179 -164 -74 -65 -79 -68 -170 -88 -365 -79 -835 -135
-1079 -128 l-105 3 -3 55 c-2 50 3 66 62 185 36 72 79 154 97 184 18 30 28 51
21 48 -17 -11 -112 -181 -158 -286 -24 -54 -61 -117 -84 -144 l-42 -47 -66 6
c-465 42 -702 169 -702 376 0 113 63 221 212 363 51 50 136 119 187 155 51 36
100 70 109 77 35 24 5 19 -33 -5z m1515 -947 c0 -9 -216 -157 -322 -221 -129
-78 -286 -154 -389 -188 -284 -95 -468 -26 -469 178 0 53 3 61 34 92 33 33 36
34 118 34 227 0 603 37 864 84 140 25 164 29 164 21z"/>
<path d="M2835 1038 c-7 -18 -23 -55 -34 -81 -12 -27 -21 -53 -21 -58 0 -19
21 -8 30 16 8 21 16 25 50 25 33 0 42 -4 52 -25 14 -32 32 -33 24 -1 -11 46
-65 156 -76 156 -6 0 -17 -15 -25 -32z m48 -70 c-2 -5 -13 -8 -24 -8 -21 0
-25 21 -8 52 11 21 12 21 24 -8 7 -16 10 -32 8 -36z"/>
<path d="M2965 1058 c-10 -24 -1 -163 10 -163 6 0 11 15 13 33 5 46 42 45 72
-3 12 -19 26 -35 31 -35 14 0 11 12 -10 44 -18 28 -18 29 0 47 22 22 24 39 6
63 -18 25 -114 35 -122 14z m100 -43 c0 -16 -8 -21 -37 -23 -35 -3 -38 -1 -38
23 0 24 3 26 38 23 29 -2 37 -7 37 -23z"/>
<path d="M3117 1064 c-11 -12 3 -24 29 -24 23 0 24 -2 24 -75 0 -43 4 -75 10
-75 6 0 10 32 10 75 0 73 1 75 25 75 16 0 25 6 25 15 0 12 -13 15 -58 15 -32
0 -62 -3 -65 -6z"/>
<path d="M3314 1060 c-60 -24 -71 -96 -22 -142 27 -25 38 -29 67 -24 36 6 59
21 48 32 -4 4 -17 3 -29 -2 -36 -15 -67 -5 -83 26 -29 57 16 107 80 89 36 -11
35 -11 35 -1 0 10 -45 32 -63 31 -7 0 -22 -4 -33 -9z"/>
<path d="M3479 1055 c-58 -31 -56 -121 3 -151 92 -48 176 74 97 140 -34 29
-61 32 -100 11z m94 -37 c51 -59 -35 -136 -93 -83 -29 26 -26 69 7 94 30 24
58 20 86 -11z"/>
<path d="M3634 1057 c-9 -24 0 -162 11 -160 6 2 12 28 15 59 l5 56 40 -58 c59
-85 65 -82 65 25 0 54 -4 91 -10 91 -6 0 -10 -27 -10 -60 0 -33 -4 -60 -9 -60
-5 0 -26 27 -47 60 -40 61 -51 70 -60 47z"/>
<path d="M3795 1038 c-10 -51 -2 -141 13 -146 9 -3 12 14 12 65 l0 68 45 -68
c25 -37 50 -67 55 -67 6 0 10 38 10 90 0 105 -18 123 -22 23 l-3 -67 -45 67
c-25 36 -48 67 -52 67 -4 0 -10 -15 -13 -32z"/>
<path d="M3960 980 l0 -90 60 0 c47 0 60 3 60 15 0 11 -12 15 -50 15 -47 0
-50 2 -50 25 0 23 3 25 50 25 28 0 50 5 50 10 0 6 -22 10 -50 10 -47 0 -50 2
-50 25 0 23 3 25 50 25 38 0 50 4 50 15 0 12 -13 15 -60 15 l-60 0 0 -90z"/>
<path d="M4145 1058 c-32 -18 -44 -40 -45 -80 0 -69 84 -110 136 -67 22 18 6
29 -22 14 -43 -22 -94 8 -94 55 0 47 51 77 94 55 32 -17 44 -2 14 19 -26 19
-55 20 -83 4z"/>
<path d="M4270 1055 c0 -9 9 -15 25 -15 24 0 25 -2 25 -75 0 -43 4 -75 10 -75
6 0 10 32 10 75 l0 75 30 0 c20 0 30 5 30 15 0 12 -14 15 -65 15 -51 0 -65 -3
-65 -15z"/>
<path d="M4420 980 c0 -53 4 -90 10 -90 6 0 10 18 10 40 0 40 0 40 39 40 39 0
40 -1 43 -37 2 -20 9 -38 16 -41 9 -3 12 19 12 88 0 69 -3 91 -12 88 -7 -3
-14 -21 -16 -41 -3 -36 -4 -37 -43 -37 -39 0 -39 0 -39 40 0 22 -4 40 -10 40
-6 0 -10 -37 -10 -90z"/>
<path d="M4577 1063 c-4 -3 -7 -33 -7 -65 0 -49 4 -63 25 -83 29 -30 68 -32
95 -5 16 16 20 33 20 90 0 40 -4 70 -10 70 -6 0 -10 -28 -10 -65 0 -57 -3 -66
-24 -80 -19 -13 -29 -14 -45 -5 -18 9 -21 20 -21 80 0 64 -6 81 -23 63z"/>
<path d="M4734 1057 c-3 -8 -4 -47 -2 -88 3 -69 4 -74 27 -77 48 -7 91 8 102
35 6 17 6 30 -2 39 -6 8 -8 25 -5 39 9 36 -23 65 -74 65 -25 0 -43 -5 -46 -13z
m96 -37 c0 -16 -7 -20 -35 -20 -28 0 -35 4 -35 20 0 16 7 20 35 20 28 0 35 -4
35 -20z m5 -75 c0 -16 -8 -21 -37 -23 -35 -3 -38 -1 -38 23 0 24 3 26 38 23
29 -2 37 -7 37 -23z"/>
</g>
</svg>
